<svg xmlns="http://www.w3.org/2000/svg" viewBox="0 0 1200 700" preserveAspectRatio="xMidYMid meet" aria-hidden="true">
  <!--
    Decorative scatter — windmills, bicycles, sunglasses, TV remotes,
    books and a hurley (Irish hurling stick) in stylised line-art at
    varied positions, sizes and slight rotations. Used as a top-portion
    page accent in Layout.astro; a
    runtime script randomises which symbol fills each slot on every
    page load, and swaps one slot for the stroopwafel misfit. The
    consumer applies a vertical mask gradient to fade the lower
    portion. Themed via currentColor.
  -->
  <defs>
    <g id="windmill" fill="currentColor" stroke="currentColor" stroke-linecap="round" stroke-linejoin="round">
      <!-- Sails (X cross through hub at 0,0) -->
      <line x1="-22" y1="-22" x2="22" y2="22" stroke-width="2.6"/>
      <line x1="-22" y1="22" x2="22" y2="-22" stroke-width="2.6"/>
      <!-- Hub -->
      <circle cx="0" cy="0" r="3" stroke="none"/>
      <!-- Cap (block under hub) -->
      <rect x="-7" y="2" width="14" height="7" stroke="none"/>
      <!-- Tower trapezoid -->
      <path d="M -7 9 L 7 9 L 11 34 L -11 34 Z" stroke="none"/>
    </g>
    <g id="bicycle" fill="none" stroke="currentColor" stroke-width="2.8" stroke-linecap="round" stroke-linejoin="round">
      <!--
        Stylised omafiets (Dutch step-through city bike), redrawn as a
        minimalist pictogram to match the reference image in
        _secret_sauce/bicycle-gen-10.jpeg. Centred on origin; the
        ~50-unit extent matches the other motifs.
      -->
      <!-- Wheels -->
      <circle cx="-18" cy="12" r="11"/>
      <circle cx="18" cy="12" r="11"/>
      <!-- Step-through top tube: characteristic S-curve from seat to head -->
      <path d="M -5 -8 C -2 -2, 6 -2, 15 -8"/>
      <!-- Seat tube + down tube triangle -->
      <path d="M -5 -8 L -2 12 L 15 -8"/>
      <!-- Head tube extending up to handlebar -->
      <line x1="15" y1="-8" x2="19" y2="-14"/>
      <!-- Handlebar grip with small hook -->
      <path d="M 19 -14 L 23 -14 L 24 -12"/>
      <!-- Saddle (thick flat bar) -->
      <line x1="-9" y1="-10" x2="-2" y2="-10" stroke-width="4"/>
    </g>
    <g id="sunglasses" fill="currentColor" stroke="currentColor" stroke-width="2" stroke-linecap="round" stroke-linejoin="round">
      <!-- Filled lenses — frame and lens share one colour so the
           silhouette reads as sunglasses rather than spectacles. -->
      <ellipse cx="-13" cy="0" rx="9" ry="7"/>
      <ellipse cx="13" cy="0" rx="9" ry="7"/>
      <!-- Bridge -->
      <path d="M -4 -1 Q 0 -5 4 -1" fill="none"/>
      <!-- Arms -->
      <line x1="-22" y1="-3" x2="-27" y2="-1" fill="none"/>
      <line x1="22" y1="-3" x2="27" y2="-1" fill="none"/>
    </g>
    <g id="remote" fill="none" stroke="currentColor" stroke-width="1.8" stroke-linecap="round" stroke-linejoin="round">
      <!-- Body -->
      <rect x="-8" y="-22" width="16" height="44" rx="4"/>
      <!-- Speaker slit at top -->
      <line x1="-3" y1="-17" x2="3" y2="-17" stroke-width="1.4"/>
      <!-- Power dot -->
      <circle cx="0" cy="-11" r="1.6" fill="currentColor" stroke="none"/>
      <!-- D-pad ring + centre -->
      <circle cx="0" cy="0" r="5" stroke-width="1.4"/>
      <circle cx="0" cy="0" r="1.4" fill="currentColor" stroke="none"/>
      <!-- Lower buttons -->
      <circle cx="-3" cy="10" r="1.3" fill="currentColor" stroke="none"/>
      <circle cx="3" cy="10" r="1.3" fill="currentColor" stroke="none"/>
      <circle cx="0" cy="16" r="1.3" fill="currentColor" stroke="none"/>
    </g>
    <g id="book" fill="none" stroke="currentColor" stroke-width="1.8" stroke-linecap="round" stroke-linejoin="round">
      <!-- Open book outline: two pages meeting at centre -->
      <path d="M -22 -10 L 0 -6 L 22 -10 L 22 12 L 0 16 L -22 12 Z"/>
      <!-- Centre crease -->
      <line x1="0" y1="-6" x2="0" y2="16"/>
      <!-- Text lines, left page -->
      <line x1="-17" y1="-3" x2="-5" y2="-1" stroke-width="1.2"/>
      <line x1="-17" y1="2" x2="-5" y2="4" stroke-width="1.2"/>
      <line x1="-17" y1="7" x2="-5" y2="9" stroke-width="1.2"/>
      <!-- Text lines, right page -->
      <line x1="5" y1="-1" x2="17" y2="-3" stroke-width="1.2"/>
      <line x1="5" y1="4" x2="17" y2="2" stroke-width="1.2"/>
      <line x1="5" y1="9" x2="17" y2="7" stroke-width="1.2"/>
    </g>
    <g id="hurley" fill="currentColor" stroke="none">
      <!--
        Hurley silhouette — auto-traced (via potrace) from an AI-
        generated reference image (see _secret_sauce/hurley-gen-10.jpeg).
        Single closed path; the silhouette is already centred on origin
        and scaled to ~50-unit extent so it sits naturally alongside
        the other motifs. Colour themed via currentColor — the
        .site-frieze CSS binds it to var(--color-accent).
      -->
      <path d="M -15.05 22.92 C -13.41 22.59 -12.21 21.95 -11.39 20.97 C -11.1 20.63 -10.86 20.18 -10.03 18.52 C -7.49 13.38 -5.37 10.21 -2.03 6.55 C -0.86 5.27 0.53 3.75 1.67 2.52 C 3.91 0.07 5.5 -1.65 7.7 -4.05 C 10.76 -7.38 11.2 -7.86 13.22 -10.05 C 16.59 -13.7 17.12 -14.28 18.61 -15.91 C 20.2 -17.66 20.48 -17.9 21.19 -18.16 C 21.81 -18.38 22.2 -18.39 22.98 -18.2 C 23.79 -18.0 23.95 -18.03 24.42 -18.46 C 24.99 -18.97 25.0 -19.17 24.48 -20.21 C 23.6 -21.97 22.63 -23.01 21.88 -23.01 C 21.29 -23.01 21.42 -23.12 16.96 -18.77 C 15.69 -17.54 14.15 -16.04 13.52 -15.43 C 12.12 -14.06 10.3 -12.29 8.54 -10.56 C 7.29 -9.34 4.03 -6.16 1.34 -3.54 C -2.57 0.26 -6.88 4.1 -8.96 5.63 C -11.72 7.67 -14.76 9.14 -18.1 10.04 C -20.54 10.71 -21.32 10.94 -21.62 11.09 C -24.01 12.29 -25.0 15.72 -23.88 18.89 C -23.0 21.4 -21.29 22.63 -18.14 23.03 C -17.45 23.12 -15.71 23.06 -15.05 22.92 Z"/>
    </g>
    <!--
      The misfit: a stroopwafel — round Dutch waffle cookie. Hidden
      among the other motifs as a small reward for observant guests.
      Exactly one per scatter, placed at a random slot at page load.
    -->
    <g id="stroopwafel" fill="none" stroke="currentColor" stroke-width="1.4" stroke-linecap="round">
      <circle cx="0" cy="0" r="14"/>
      <line x1="-12" y1="-7" x2="12" y2="-7"/>
      <line x1="-13" y1="-3" x2="13" y2="-3"/>
      <line x1="-13" y1="3" x2="13" y2="3"/>
      <line x1="-12" y1="7" x2="12" y2="7"/>
      <line x1="-7" y1="-12" x2="-7" y2="12"/>
      <line x1="-3" y1="-13" x2="-3" y2="13"/>
      <line x1="3" y1="-13" x2="3" y2="13"/>
      <line x1="7" y1="-12" x2="7" y2="12"/>
    </g>
  </defs>

  <!--
    Scatter slots. The symbol referenced here is just a server-rendered
    default — Layout.astro reassigns each slot to a random symbol on
    page load, then forces one slot to the stroopwafel.
  -->

  <!-- Top band: dense, mostly upright -->
  <use href="#windmill" transform="translate(120 80) rotate(-8)"/>
  <use href="#bicycle"  transform="translate(310 110) rotate(5)"/>
  <use href="#windmill" transform="translate(510 75) rotate(12)"/>
  <use href="#bicycle"  transform="translate(710 100) rotate(-7)"/>
  <use href="#windmill" transform="translate(900 85) rotate(6) scale(1.05)"/>
  <use href="#bicycle"  transform="translate(1080 110) rotate(-10)"/>

  <!-- Upper-middle band -->
  <use href="#windmill" transform="translate(220 230) rotate(4)"/>
  <use href="#bicycle"  transform="translate(450 250) rotate(-9) scale(1.1)"/>
  <use href="#windmill" transform="translate(740 240) rotate(10)"/>
  <use href="#bicycle"  transform="translate(970 270) rotate(-4)"/>

  <!-- Middle band -->
  <use href="#windmill" transform="translate(150 380) rotate(-6)"/>
  <use href="#bicycle"  transform="translate(380 400) rotate(8) scale(0.95)"/>
  <use href="#windmill" transform="translate(620 390) rotate(5)"/>
  <use href="#bicycle"  transform="translate(850 410) rotate(-11)"/>
  <use href="#windmill" transform="translate(1070 395) rotate(7)"/>

  <!-- Lower-middle band -->
  <use href="#bicycle"  transform="translate(260 530) rotate(-5)"/>
  <use href="#windmill" transform="translate(530 545) rotate(9) scale(0.95)"/>
  <use href="#bicycle"  transform="translate(800 535) rotate(-8)"/>
  <use href="#windmill" transform="translate(1010 555) rotate(4)"/>

  <!-- Bottom band: sparse, will fade out via mask -->
  <use href="#bicycle"  transform="translate(380 650) rotate(6) scale(0.95)"/>
  <use href="#windmill" transform="translate(700 660) rotate(-7)"/>
</svg>
