<svg xmlns="http://www.w3.org/2000/svg" viewBox="0 0 1200 400" preserveAspectRatio="xMidYMid meet" aria-hidden="true">
  <!--
    Decorative scatter — windmills and bicycles in stylised line-art at
    varied positions, sizes and slight rotations. Used as a top-third
    page accent in Layout.astro; the consumer applies a vertical mask
    gradient to fade the lower portion. Themed via currentColor.
  -->
  <defs>
    <g id="windmill" fill="currentColor" stroke="currentColor" stroke-linecap="round" stroke-linejoin="round">
      <!-- Sails (X cross through hub at 0,0) -->
      <line x1="-22" y1="-22" x2="22" y2="22" stroke-width="2.6"/>
      <line x1="-22" y1="22" x2="22" y2="-22" stroke-width="2.6"/>
      <!-- Hub -->
      <circle cx="0" cy="0" r="3" stroke="none"/>
      <!-- Cap (block under hub) -->
      <rect x="-7" y="2" width="14" height="7" stroke="none"/>
      <!-- Tower trapezoid -->
      <path d="M -7 9 L 7 9 L 11 34 L -11 34 Z" stroke="none"/>
    </g>
    <g id="bicycle" fill="none" stroke="currentColor" stroke-width="2.2" stroke-linecap="round" stroke-linejoin="round">
      <!-- Wheels -->
      <circle cx="-18" cy="12" r="10"/>
      <circle cx="18" cy="12" r="10"/>
      <!-- Frame: top tube + down tube -->
      <path d="M -18 12 L 0 -2 L 18 12"/>
      <!-- Seat tube -->
      <path d="M 0 -2 L -3 12"/>
      <!-- Handlebar -->
      <path d="M 18 -2 L 22 -6"/>
      <!-- Saddle -->
      <line x1="-6" y1="-6" x2="3" y2="-6" stroke-width="1.8"/>
    </g>
    <!--
      The misfit: a stroopwafel — round Dutch waffle cookie. Hidden among
      the windmills and bicycles as a small reward for observant guests.
      One per scatter. Cross-hatched grid pattern; circular outline.
    -->
    <g id="stroopwafel" fill="none" stroke="currentColor" stroke-width="1.4" stroke-linecap="round">
      <circle cx="0" cy="0" r="14"/>
      <line x1="-12" y1="-7" x2="12" y2="-7"/>
      <line x1="-13" y1="-3" x2="13" y2="-3"/>
      <line x1="-13" y1="3" x2="13" y2="3"/>
      <line x1="-12" y1="7" x2="12" y2="7"/>
      <line x1="-7" y1="-12" x2="-7" y2="12"/>
      <line x1="-3" y1="-13" x2="-3" y2="13"/>
      <line x1="3" y1="-13" x2="3" y2="13"/>
      <line x1="7" y1="-12" x2="7" y2="12"/>
    </g>
  </defs>

  <!-- Top band: dense, mostly upright -->
  <use href="#windmill" transform="translate(120 80) rotate(-8)"/>
  <use href="#bicycle"  transform="translate(310 110) rotate(5)"/>
  <use href="#windmill" transform="translate(510 75) rotate(12)"/>
  <use href="#bicycle"  transform="translate(710 100) rotate(-7)"/>
  <use href="#windmill" transform="translate(900 85) rotate(6) scale(1.05)"/>
  <use href="#bicycle"  transform="translate(1080 110) rotate(-10)"/>

  <!-- Middle band: medium density, more tilt -->
  <use href="#windmill" transform="translate(220 230) rotate(4)"/>
  <use href="#bicycle"  transform="translate(450 250) rotate(-9) scale(1.1)"/>
  <use href="#windmill" transform="translate(740 240) rotate(10)"/>
  <use href="#bicycle"  transform="translate(970 270) rotate(-4)"/>

  <!-- Bottom band: sparse, will fade out via mask -->
  <use href="#windmill" transform="translate(380 350) rotate(6) scale(0.95)"/>
  <use href="#bicycle"  transform="translate(840 360) rotate(-8)"/>

  <!--
    The single stroopwafel hides in the scatter at a random slot,
    swapped in by Layout.astro at page load. See `.site-frieze` script.
  -->
</svg>
