<svg xmlns="http://www.w3.org/2000/svg" viewBox="0 0 1200 400" preserveAspectRatio="xMidYMid slice" aria-hidden="true">
  <defs>
    <linearGradient id="hero-sky" x1="0" y1="0" x2="0" y2="1">
      <stop offset="0%" stop-color="#7fb8d4" />
      <stop offset="60%" stop-color="#c4d8b5" />
      <stop offset="100%" stop-color="#e8d68a" />
    </linearGradient>
    <linearGradient id="hero-field" x1="0" y1="0" x2="0" y2="1">
      <stop offset="0%" stop-color="#f5d76e" />
      <stop offset="50%" stop-color="#e8c84a" />
      <stop offset="100%" stop-color="#c89a18" />
    </linearGradient>
  </defs>

  <rect x="0" y="0" width="1200" height="240" fill="url(#hero-sky)" />

  <path d="M 0 240 Q 100 215 200 230 Q 320 210 440 235 Q 560 215 700 230 Q 820 215 950 235 Q 1080 215 1200 230 L 1200 250 L 0 250 Z"
        fill="#8a9b6a" opacity="0.55" />

  <g fill="#a8b585" opacity="0.7">
    <ellipse cx="80"   cy="255" rx="50" ry="14" />
    <ellipse cx="220"  cy="258" rx="60" ry="16" />
    <ellipse cx="380"  cy="252" rx="55" ry="13" />
    <ellipse cx="540"  cy="258" rx="65" ry="15" />
    <ellipse cx="720"  cy="254" rx="58" ry="14" />
    <ellipse cx="880"  cy="258" rx="62" ry="16" />
    <ellipse cx="1050" cy="253" rx="55" ry="13" />
    <ellipse cx="1180" cy="258" rx="50" ry="14" />
  </g>

  <rect x="0" y="240" width="1200" height="160" fill="url(#hero-field)" />

  <g fill="#fff5b8" opacity="0.7">
    <circle cx="60"   cy="290" r="3" />
    <circle cx="135"  cy="295" r="3" />
    <circle cx="220"  cy="288" r="3" />
    <circle cx="305"  cy="296" r="3" />
    <circle cx="395"  cy="291" r="3" />
    <circle cx="480"  cy="294" r="3" />
    <circle cx="570"  cy="289" r="3" />
    <circle cx="660"  cy="295" r="3" />
    <circle cx="745"  cy="290" r="3" />
    <circle cx="835"  cy="294" r="3" />
    <circle cx="920"  cy="289" r="3" />
    <circle cx="1010" cy="295" r="3" />
    <circle cx="1095" cy="290" r="3" />
    <circle cx="1175" cy="294" r="3" />
  </g>

  <g fill="#fffacd">
    <circle cx="40"   cy="330" r="5" />
    <circle cx="120"  cy="335" r="6" />
    <circle cx="205"  cy="328" r="5" />
    <circle cx="295"  cy="338" r="6" />
    <circle cx="385"  cy="332" r="5" />
    <circle cx="475"  cy="338" r="7" />
    <circle cx="565"  cy="330" r="5" />
    <circle cx="655"  cy="338" r="6" />
    <circle cx="745"  cy="332" r="6" />
    <circle cx="835"  cy="338" r="5" />
    <circle cx="925"  cy="330" r="6" />
    <circle cx="1015" cy="338" r="7" />
    <circle cx="1105" cy="332" r="5" />
    <circle cx="1185" cy="338" r="6" />
  </g>

  <g fill="#ffec80">
    <circle cx="80"   cy="380" r="9"  />
    <circle cx="180"  cy="385" r="10" />
    <circle cx="290"  cy="380" r="9"  />
    <circle cx="400"  cy="385" r="11" />
    <circle cx="510"  cy="380" r="10" />
    <circle cx="620"  cy="385" r="9"  />
    <circle cx="730"  cy="380" r="11" />
    <circle cx="840"  cy="385" r="10" />
    <circle cx="950"  cy="380" r="9"  />
    <circle cx="1060" cy="385" r="10" />
    <circle cx="1170" cy="380" r="11" />
  </g>
</svg>
